<svg id="Layer_1" data-name="Layer 1" xmlns="http://www.w3.org/2000/svg" viewBox="0 0 100 100"><defs><style>.cls-1{fill:#037665;}</style></defs><path class="cls-1" d="M99.37,38.67a2.56,2.56,0,0,0-2.43-1.77H61.08a2.54,2.54,0,0,0-1.5.49l-1.5,1.09-3.15,2.29L35.22,55.09l-3.15,2.29-1.5,1.09a2.55,2.55,0,0,0-.93,2.86,2.56,2.56,0,0,0,2.43,1.77h28l-6.91,5L50,70.4l-4.35,3.17L42.5,75.85,25.85,88l4.37-13.44a2.56,2.56,0,0,0-4.87-1.58L18.56,93.85a2.55,2.55,0,0,0,3.93,2.86L46.85,79,50,76.73l1.5-1.09,2.85-2.07,3.15-2.29L63.44,67l3.15-2.28,2.84-2.07a2.54,2.54,0,0,0,.93-2.86,2.46,2.46,0,0,0-.2-.47l0-.06A1.27,1.27,0,0,0,70,59L69.93,59l-.06-.08-.06-.07-.08-.07-.06-.07a2.73,2.73,0,0,0-.52-.37l-.07,0a2.75,2.75,0,0,0-.36-.15l-.18-.05-.1,0-.1,0-.2,0H39.94L58,44.89A15,15,0,0,1,66.79,42H89.07l-6.85,5a2.56,2.56,0,0,0,3,4.14l13.22-9.6A2.55,2.55,0,0,0,99.37,38.67Z"/><path class="cls-1" d="M28.39,55.47l.53-.38L10.93,42h28a2.56,2.56,0,0,0,2.43-1.77L50,13.63l6.87,21.15.53-.38a6.18,6.18,0,0,1,3.68-1.2h.66L52.43,4.57a2.55,2.55,0,0,0-4.86,0L37.06,36.9h-34a2.56,2.56,0,0,0-1.51,4.63L25.94,59.25A6.27,6.27,0,0,1,28.39,55.47Z"/><path class="cls-1" d="M72.13,65.18c-.17.15-.34.29-.52.42l-3.82,2.78L74.15,88,57.5,75.85l-3.82,2.78-.53.39L77.51,96.71a2.51,2.51,0,0,0,1.5.49,2.55,2.55,0,0,0,2.43-3.35Z"/></svg>